# xmcd CD database file
#
# Track frame offsets:
#	150
#	47925
#	81116
#	100445
#	137279
#	165181
#	190954
#	225000
#
# Disc length: 3576 seconds
#
# Revision: 2
# Processed by: cddbd v1.5.2PL0 Copyright (c) Steve Scherf et al.
# Submitted via: CDex 1.51
#
DISCID=540df608
DTITLE=Muzio Clementi - Quatre caprices  (Pietro Spada, piano)
DYEAR=1900
DGENRE=Classique
TTITLE0=Caprice N°1, Op.47 - I. Adagio - Allegro agitato
TTITLE1=Caprice N°1, Op.47 - II. Adagio sostenuto
TTITLE2=Caprice N°1, Op.47 - III. Allegro vivace
TTITLE3=Caprice N°2, Op.47 - I. Adagio sostenuto - Allegro con espressione e passione
TTITLE4=Caprice N°2, Op.47 - II. Adagio cantabile
TTITLE5=Caprice N°2, Op.47 - III. Allegro vivace
TTITLE6=Caprice N°3, Op.34 - Lento - Presto - Allegretto cantabile
TTITLE7=Caprice N°4, Op.34 - Allegro moderato - Moderato
EXTD=
EXTT0=
EXTT1=
EXTT2=
EXTT3=
EXTT4=
EXTT5=
EXTT6=
EXTT7=
PLAYORDER=
